<mxfile host="app.diagrams.net" modified="2023-10-17T10:06:22.880Z" agent="Mozilla/5.0 (Macintosh; Intel Mac OS X 10_15_7) AppleWebKit/537.36 (KHTML, like Gecko) Chrome/118.0.0.0 Safari/537.36" version="22.0.4" etag="Xi05pPTKQaIA6baMhPAI" type="github">
  <diagram name="Page-1" id="ro0MmlxmIQ3J-lOLopgn">
    <mxGraphModel>
      <root>
        <mxCell id="0" />
        <mxCell id="1" parent="0" />
      </root>
    </mxGraphModel>
  </diagram>
</mxfile>
